HIERARCHY
ROOT Hips
{
	OFFSET -3.958830 18.904000 13.208200
	CHANNELS 6 Xposition Yposition Zposition Zrotation Yrotation Xrotation 
	JOINT LHipJoint
	{
		OFFSET 0.000000 0.000000 0.000000
		CHANNELS 3 Zrotation Yrotation Xrotation
		JOINT LeftUpLeg
		{
			OFFSET 1.800000 -1.400000 0.085000
			CHANNELS 3 Zrotation Yrotation Xrotation
			JOINT LeftLeg
			{
				OFFSET 2.215000 -6.000000 0.000000
				CHANNELS 3 Zrotation Yrotation Xrotation
				JOINT LeftFoot
				{
					OFFSET 2.500000 -6.900000 0.000000
					CHANNELS 3 Zrotation Yrotation Xrotation
					JOINT LeftToeBase
					{
						OFFSET 0.200000 -0.500000 1.950000
						CHANNELS 3 Zrotation Yrotation Xrotation
						End Site
						{
							OFFSET 0.000000 0.000000 0.000000
						}
					}
				}
			}
		}
	}
	JOINT RHipJoint
	{
		OFFSET 0.000000 0.000000 0.000000
		CHANNELS 3 Zrotation Yrotation Xrotation
		JOINT RightUpLeg
		{
			OFFSET -1.800000 -1.400000 0.085000
			CHANNELS 3 Zrotation Yrotation Xrotation
			JOINT RightLeg
			{
				OFFSET -2.215000 -6.000000 0.000000
				CHANNELS 3 Zrotation Yrotation Xrotation
				JOINT RightFoot
				{
					OFFSET -2.500000 -6.900000 0.000000
					CHANNELS 3 Zrotation Yrotation Xrotation
					JOINT RightToeBase
					{
						OFFSET -0.200000 -0.500000 1.950000
						CHANNELS 3 Zrotation Yrotation Xrotation
						End Site
						{
							OFFSET 0.000000 0.000000 0.000000
						}
					}
				}
			}
		}
	}
	JOINT LowerBack
	{
		OFFSET 0.000000 0.000000 0.000000
		CHANNELS 3 Zrotation Yrotation Xrotation
		JOINT Spine
		{
			OFFSET -0.087000 1.940000 -0.288900
			CHANNELS 3 Zrotation Yrotation Xrotation
			JOINT Spine1
			{
				OFFSET 0.000000 1.950000 0.060000
				CHANNELS 3 Zrotation Yrotation Xrotation
				JOINT Neck
				{
					OFFSET 0.000000 0.000000 0.000000
					CHANNELS 3 Zrotation Yrotation Xrotation
					JOINT Neck1
					{
						OFFSET 0.000000 1.600000 0.340000
						CHANNELS 3 Zrotation Yrotation Xrotation
						JOINT Head
						{
							OFFSET 0.000000 1.667000 -0.240000
							CHANNELS 3 Zrotation Yrotation Xrotation
							End Site
							{
								OFFSET 0.000000 0.000000 0.000000
							}
						}
					}
				}
				JOINT LeftShoulder
				{
					OFFSET 0.000000 0.000000 0.000000
					CHANNELS 3 Zrotation Yrotation Xrotation
					JOINT LeftArm
					{
						OFFSET 2.700000 1.550000 -0.730000
						CHANNELS 3 Zrotation Yrotation Xrotation
						JOINT LeftForeArm
						{
							OFFSET 5.450000 0.000000 0.000000
							CHANNELS 3 Zrotation Yrotation Xrotation
							JOINT LeftHand
							{
								OFFSET 3.450000 0.000000 0.000000
								CHANNELS 3 Zrotation Yrotation Xrotation
								JOINT LeftHandIndex1
								{
									OFFSET 0.750000 0.000000 0.000000
									CHANNELS 3 Zrotation Yrotation Xrotation
									End Site
									{
										OFFSET 0.000000 0.000000 0.000000
									}
								}
							}
						}
					}
				}
				JOINT RightShoulder
				{
					OFFSET 0.000000 0.000000 0.000000
					CHANNELS 3 Zrotation Yrotation Xrotation
					JOINT RightArm
					{
						OFFSET -2.700000 1.550000 -0.730000
						CHANNELS 3 Zrotation Yrotation Xrotation
						JOINT RightForeArm
						{
							OFFSET -5.450000 0.000000 0.000000
							CHANNELS 3 Zrotation Yrotation Xrotation
							JOINT RightHand
							{
								OFFSET -3.450000 0.000000 0.000000
								CHANNELS 3 Zrotation Yrotation Xrotation
								JOINT RightHandIndex1
								{
									OFFSET -0.750000 0.000000 0.000000
									CHANNELS 3 Zrotation Yrotation Xrotation
									End Site
									{
										OFFSET 0.000000 0.000000 0.000000
									}
								}
							}
						}
					}
				}
			}
		}
	}
}
MOTION
Frames: 6
Frame Time: 0.016667
0.363680 16.970980 -1.324490 -0.598865 -35.787022 -9.282735 -15.191174 14.851010 2.698180 11.186241 -1.549004 -1.820098 -6.157265 9.162146 27.172255 -0.335595 6.924747 2.326789 0.710830 0.225200 0.572810 18.194536 -10.106089 2.529559 -12.411334 0.277177 -32.971046 -2.896217 -8.251487 47.001330 -0.827118 -6.559534 2.195165 0.206360 0.212210 0.173790 -2.994813 -5.810372 -7.309019 4.348483 -11.861578 23.330173 -7.495680 -11.249633 6.986035 0.801693 -9.659594 -14.033172 -30.358942 26.222673 28.739226 -3.803890 14.398200 -13.360390 -11.754616 -7.844815 3.864408 -36.412999 -10.168678 -0.920216 0.892555 -20.793617 -1.670074 -3.609107 2.710148 0.888150 0.068000 0.018560 0.276970 11.673528 8.864727 9.368851 46.364241 -7.785077 -8.936051 137.019521 55.829657 87.288485 1.743279 -1.777593 -0.334120 0.401690 -0.088060 -0.416960 
0.267220 16.942780 -1.261300 0.673827 -33.926999 -8.669011 -15.183095 14.958212 2.719806 9.784067 -1.289884 -3.257904 -5.202266 8.813183 27.571505 -0.339434 6.757418 2.421692 0.659750 0.175040 0.520830 18.173488 -10.363148 2.280796 -13.869546 -0.399131 -31.338533 -4.438448 -6.510791 41.006798 -0.566135 -5.520480 2.565524 0.189650 0.295940 0.164790 -2.930053 -5.663997 -7.103946 4.618665 -11.519712 19.484200 -7.450634 -11.064641 5.984555 1.037449 -10.133204 -12.967878 -30.276896 26.708304 28.170244 -3.837250 14.671810 -10.474450 -11.955621 -3.583728 3.005076 -41.758502 -7.426126 -2.083359 2.995825 -22.977158 -2.191605 -3.674281 2.700821 0.822400 0.129000 -0.042450 0.301560 11.329088 5.903479 8.531982 47.635750 -6.730767 -6.278484 150.293218 54.310458 107.714442 1.617855 -1.899008 -0.357090 0.414890 -0.081370 -0.388000 
0.198460 16.910830 -1.208370 0.984498 -31.393864 -7.837884 -15.164170 15.054288 2.751130 9.120302 -1.431591 -5.147474 -4.137728 8.582965 29.050691 -0.347203 6.746927 2.438315 0.571510 0.062180 0.438640 18.145792 -10.597717 2.094714 -15.058835 -0.800297 -29.203961 -5.233899 -5.715243 37.351483 -0.407034 -4.995555 2.779715 0.137980 0.368480 0.151460 -2.884819 -5.514367 -7.006944 5.312119 -11.083135 17.551374 -6.343010 -10.894308 4.015802 1.484043 -10.459548 -12.107874 -29.699323 26.609303 28.195191 -3.725220 14.565440 -7.307710 -13.118090 0.096595 2.229315 -46.071305 -3.940535 -3.975826 5.158471 -26.401220 -2.849262 -3.714619 2.691065 0.790260 0.176020 -0.116490 0.303160 11.640237 3.248052 7.982443 49.308247 -6.684228 -4.312008 168.247050 50.517851 138.367212 1.513904 -2.056569 -0.397080 0.408160 -0.039390 -0.378690 
0.151810 16.883120 -1.163220 0.001247 -29.076814 -6.097809 -15.113932 15.103560 2.806414 9.405360 -1.916127 -8.119335 -3.152259 8.550193 31.484646 -0.239952 6.804736 2.426334 0.490270 -0.031630 0.341420 18.132705 -10.754242 2.080223 -14.978748 -0.472838 -27.782255 -5.247286 -5.408240 35.706148 -0.331179 -4.751356 2.927247 0.045440 0.412170 0.144940 -2.928194 -5.304167 -7.058223 7.352152 -10.472000 17.538300 -4.468109 -10.199729 -0.000555 2.273350 -10.895072 -11.431250 -29.086503 25.492911 28.083921 -3.631350 14.169190 -3.979630 -14.998714 3.773712 1.743601 -49.750351 1.244617 -7.174975 7.246719 -33.780656 -3.853761 -3.661548 2.734066 0.743290 0.187560 -0.155490 0.334140 12.069523 0.786676 7.298024 51.188286 -7.209897 -3.945225 -178.202564 45.728480 166.661557 1.551665 -2.158984 -0.378280 0.364410 -0.037100 -0.331740 
0.106060 16.864260 -1.114490 -0.438883 -26.546446 -3.572496 -15.105882 15.095785 2.952382 8.734466 -2.606222 -12.195325 -2.179101 8.396413 33.714602 -0.203773 6.845027 2.437930 0.317960 -0.247200 0.209400 18.093011 -10.768593 2.179365 -14.951838 0.084942 -27.683714 -4.678809 -5.382060 34.535158 -0.217053 -4.576661 3.071812 -0.088690 0.494720 0.094300 -2.886635 -5.211643 -7.246658 8.956383 -9.290729 17.804465 -2.359829 -8.308456 -6.436389 3.176844 -11.176902 -10.257591 -27.598945 22.906321 28.192034 -4.717450 13.920460 -0.083320 -16.271985 9.237384 0.379072 -51.392608 6.179387 -9.056176 6.723570 -39.518183 -3.808631 -3.672547 2.694094 0.729390 0.223580 -0.246310 0.331080 11.652457 -3.253422 6.207197 53.691093 -9.114734 -4.659749 -168.624597 40.585734 -167.226366 1.576263 -2.154012 -0.445340 0.362380 0.022850 -0.324080 
0.072610 16.867730 -1.084180 -1.234227 -23.143283 -0.287382 -15.082543 14.828941 3.181838 8.698420 -3.618877 -17.398926 -1.993287 8.551809 35.814075 -0.144419 6.971158 2.401248 0.188100 -0.412610 0.103670 18.112176 -10.752859 2.301058 -14.073212 0.813958 -28.162624 -3.915289 -5.367851 33.404584 -0.115905 -4.417697 3.195782 -0.199970 0.567740 0.091560 -3.030451 -4.748687 -7.425433 11.191165 -8.043854 17.145121 -1.495166 -5.797636 -12.047855 3.272732 -10.944440 -8.611636 -24.284974 19.015759 28.093295 -5.082280 13.010090 3.136730 -16.072939 14.999182 -0.963883 -51.376562 9.884526 -10.058397 2.410794 -46.720564 -2.412565 -3.701729 2.788404 0.679190 0.278000 -0.327170 0.333340 10.865422 -7.981740 4.406827 56.333599 -11.305166 -6.122034 -161.128371 34.571814 -139.470355 1.551876 -2.177543 -0.465630 0.318960 0.063350 -0.307220 
